{"title":"Ishqedarriyaan 2015 Movies PDVDRip XviD AAC New +Sample ~ â˜»rDXâ˜»","uid":11991704,"size":740196343,"categoryP":"video","categoryS":"movies","magnet":"?xt=urn:btih:5a36f63e4ce75cb9a7a73272ff0e29156c5e41d5&amp;dn=Ishqedarriyaan+2015+Movies+PDVDRip+XviD+AAC+New+%2BSample+%7E+%E2%98%BBrDX%E2%98%BB&amp;tr=udp%3A%2F%2Ftracker.openbittorrent.com%3A80&amp;tr=udp%3A%2F%2Fopen.demonii.com%3A1337&amp;tr=udp%3A%2F%2Ftracker.coppersurfer.tk%3A6969&amp;tr=udp%3A%2F%2Fexodus.desync.com%3A6969","seeders":0,"leechers":1,"uploader":"basicssom","files":2,"time":1433533015,"description":"----------------------------------------------------------------\nIshqedarriyaan 2015 Hindi Movies PDVDRip XviD AAC New Source with Sample ~ â˜»rDXâ˜»\n\nSCREEN SHOTS &amp; POSTER:\n &lt;a href=&quot;\nhttp://imagehosting4u.com/2015/6/Ishqedarriyaan/11.html&quot; rel=&quot;nofollow&quot; target=&quot;_NEW&quot;&gt;\nhttp://imagehosting4u.com/2015/6/Ishqedarriyaan/11.html&lt;/a&gt; &lt;a href=&quot;\nhttp://imagehosting4u.com/2015/6/Ishqedarriyaan/1.html&quot; rel=&quot;nofollow&quot; target=&quot;_NEW&quot;&gt;\nhttp://imagehosting4u.com/2015/6/Ishqedarriyaan/1.html&lt;/a&gt; &lt;a href=&quot;\nhttp://imagehosting4u.com/2015/6/Ishqedarriyaan/2.html&quot; rel=&quot;nofollow&quot; target=&quot;_NEW&quot;&gt;\nhttp://imagehosting4u.com/2015/6/Ishqedarriyaan/2.html&lt;/a&gt; &lt;a href=&quot;\nhttp://imagehosting4u.com/2015/6/Ishqedarriyaan/3.html&quot; rel=&quot;nofollow&quot; target=&quot;_NEW&quot;&gt;\nhttp://imagehosting4u.com/2015/6/Ishqedarriyaan/3.html&lt;/a&gt; &lt;a href=&quot;\nhttp://imagehosting4u.com/2015/6/Ishqedarriyaan/4.html&quot; rel=&quot;nofollow&quot; target=&quot;_NEW&quot;&gt;\nhttp://imagehosting4u.com/2015/6/Ishqedarriyaan/4.html&lt;/a&gt; &lt;a href=&quot;\nhttp://imagehosting4u.com/2015/6/Ishqedarriyaan/5.html&quot; rel=&quot;nofollow&quot; target=&quot;_NEW&quot;&gt;\nhttp://imagehosting4u.com/2015/6/Ishqedarriyaan/5.html&lt;/a&gt; &lt;a href=&quot;\nhttp://imagehosting4u.com/2015/6/Ishqedarriyaan/6.html&quot; rel=&quot;nofollow&quot; target=&quot;_NEW&quot;&gt;\nhttp://imagehosting4u.com/2015/6/Ishqedarriyaan/6.html&lt;/a&gt; &lt;a href=&quot;\nhttp://imagehosting4u.com/2015/6/Ishqedarriyaan/7.html&quot; rel=&quot;nofollow&quot; target=&quot;_NEW&quot;&gt;\nhttp://imagehosting4u.com/2015/6/Ishqedarriyaan/7.html&lt;/a&gt; &lt;a href=&quot;\nhttp://imagehosting4u.com/2015/6/Ishqedarriyaan/8.html&quot; rel=&quot;nofollow&quot; target=&quot;_NEW&quot;&gt;\nhttp://imagehosting4u.com/2015/6/Ishqedarriyaan/8.html&lt;/a&gt; &lt;a href=&quot;\nhttp://imagehosting4u.com/2015/6/Ishqedarriyaan/9.html&quot; rel=&quot;nofollow&quot; target=&quot;_NEW&quot;&gt;\nhttp://imagehosting4u.com/2015/6/Ishqedarriyaan/9.html&lt;/a&gt; &lt;a href=&quot;\nhttp://imagehosting4u.com/2015/6/Ishqedarriyaan/10.html&quot; rel=&quot;nofollow&quot; target=&quot;_NEW&quot;&gt;\nhttp://imagehosting4u.com/2015/6/Ishqedarriyaan/10.html&lt;/a&gt;\n\nFormat                                   : Matroska\nFormat version                           : Version 4 / Version 2\nFile size                                : 689 MiB\nDuration                                 : 2h 6mn\nOverall bit rate                         : 764 Kbps\nMovie name                               : Ishqedarriyaan 2015 Hindi Movies PDVDRip XviD AAC New Source ~ rDX ~\n\nVideo\nID                                       : 1\nFormat                                   : MPEG-4 Visual\nFormat profile                           : Advanced Simple@L5\nFormat settings, BVOP                    : Yes\nFormat settings, QPel                    : No\nFormat settings, GMC                     : No warppoints\nFormat settings, Matrix                  : Default (H.263)\nCodec ID                                 : V_MS/VFW/FOURCC / XVID\nCodec ID/Hint                            : XviD\nDuration                                 : 2h 6mn\nBit rate                                 : 621 Kbps\nWidth                                    : 640 pixels\nHeight                                   : 272 pixels\nDisplay aspect ratio                     : 2.35:1\nFrame rate mode                          : Constant\nFrame rate                               : 25.000 fps\nColor space                              : YUV\nChroma subsampling                       : 4:2:0\nBit depth                                : 8 bits\nScan type                                : Progressive\nCompression mode                         : Lossy\nBits/(Pixel*Frame)                       : 0.143\nStream size                              : 560 MiB (81%)\nTitle                                    : ~ rDX ~\nWriting library                          : XviD 1.2.1 (UTC 2008-12-04)\nDefault                                  : Yes\nForced                                   : No\n\nAudio\nID                                       : 2\nFormat                                   : MPEG Audio\nFormat version                           : Version 1\nFormat profile                           : Layer 3\nMode                                     : Joint stereo\nCodec ID                                 : A_MPEG/L3\nCodec ID/Hint                            : MP3\nDuration                                 : 2h 6mn\nBit rate mode                            : Constant\nBit rate                                 : 128 Kbps\nChannel(s)                               : 2 channels\nSampling rate                            : 48.0 KHz\nCompression mode                         : Lossy\nStream size                              : 115 MiB (17%)\nTitle                                    : ~ rDX ~\nWriting library                          : LAME3.99r\nEncoding settings                        : -m j -V 4 -q 2 -lowpass 17 -b 128\nDefault                                  : Yes\nForced                                   : No","torrent":{"xt":"urn:btih:5a36f63e4ce75cb9a7a73272ff0e29156c5e41d5","amp;dn":"Ishqedarriyaan+2015+Movies+PDVDRip+XviD+AAC+New+%2BSample+%7E+%E2%98%BBrDX%E2%98%BB","amp;tr":["udp%3A%2F%2Ftracker.openbittorrent.com%3A80","udp%3A%2F%2Fopen.demonii.com%3A1337","udp%3A%2F%2Ftracker.coppersurfer.tk%3A6969","udp%3A%2F%2Fexodus.desync.com%3A6969"],"infoHash":"5a36f63e4ce75cb9a7a73272ff0e29156c5e41d5","infoHashBuffer":{"type":"Buffer","data":[90,54,246,62,76,231,92,185,167,167,50,114,255,14,41,21,108,94,65,213]},"announce":[],"urlList":[]}}